<?xml version="1.0" encoding="UTF-8"?><svg id="Layer_1" xmlns="http://www.w3.org/2000/svg" viewBox="0 0 80.25 61.31"><defs><style>.cls-1{fill:none;}.cls-1,.cls-2,.cls-3,.cls-4{stroke:#000;stroke-miterlimit:10;}.cls-3{stroke-width:.75px;}.cls-3,.cls-4{fill:#fff;}</style></defs><g><g><g><ellipse class="cls-2" cx="13.72" cy="12.43" rx="14" ry="11" transform="translate(-4.51 9.23) rotate(-32.22)"/><ellipse class="cls-2" cx="66.53" cy="12.75" rx="11" ry="14" transform="translate(20.26 62.23) rotate(-57.78)"/></g><ellipse class="cls-3" cx="39.72" cy="35.93" rx="30.5" ry="25"/></g><ellipse cx="28.22" cy="36.43" rx="7.5" ry="4" transform="translate(-12 58.92) rotate(-81.44)"/><ellipse cx="51.53" cy="36.75" rx="4" ry="7.5" transform="translate(-4.9 8.08) rotate(-8.56)"/><path class="cls-2" d="M32.82,47.2c-.56-2.01,.76-4.08,2.81-4.47,5.31-1.02,9.16-.16,10.09,1.71,1,2-.92,8-7,8-1,0-5.09-2.33-5.9-5.24Z"/><ellipse class="cls-4" cx="28.86" cy="35.43" rx="3.53" ry="1.88" transform="translate(-10.47 58.7) rotate(-81.44)"/><ellipse class="cls-4" cx="50.53" cy="34.9" rx="1.88" ry="3.53" transform="translate(-4.63 7.91) rotate(-8.56)"/></g><path class="cls-1" d="M39.72,52.43c-.12,.34-3.09,3.6-5,4-1.56,.33-6.13-.57-7-3"/><path class="cls-1" d="M39.44,52.23c.12,.34,3.09,3.6,5,4,1.56,.33,6.13-.57,7-3"/></svg>